<svg width="30" height="30" viewBox="0 0 30 30" fill="none" xmlns="http://www.w3.org/2000/svg">
<g clip-path="url(#clip0_3536_1625)">
<path d="M15 7.30875C10.7438 7.30875 7.30876 10.7437 7.30876 15C7.30876 19.2562 10.7438 22.6912 15 22.6912C19.2563 22.6912 22.6913 19.2562 22.6913 15C22.6913 10.7437 19.2563 7.30875 15 7.30875ZM15 19.9987C12.2475 19.9987 10.0013 17.7525 10.0013 15C10.0013 12.2475 12.2475 10.0012 15 10.0012C17.7525 10.0012 19.9988 12.2475 19.9988 15C19.9988 17.7525 17.7525 19.9987 15 19.9987ZM23.0063 5.20125C22.0125 5.20125 21.21 6.00375 21.21 6.9975C21.21 7.99125 22.0125 8.79375 23.0063 8.79375C24 8.79375 24.8025 7.995 24.8025 6.9975C24.8028 6.76153 24.7566 6.52782 24.6664 6.30975C24.5762 6.09169 24.4439 5.89355 24.2771 5.7267C24.1102 5.55984 23.9121 5.42754 23.694 5.33738C23.476 5.24721 23.2422 5.20095 23.0063 5.20125V5.20125ZM29.9925 15C29.9925 12.93 30.0113 10.8787 29.895 8.8125C29.7788 6.4125 29.2313 4.2825 27.4763 2.5275C25.7175 0.768747 23.5913 0.224997 21.1913 0.108747C19.1213 -0.00750281 17.07 0.0112473 15.0038 0.0112473C12.9338 0.0112473 10.8825 -0.00750281 8.81626 0.108747C6.41626 0.224997 4.28625 0.772497 2.53125 2.5275C0.772502 4.28625 0.228751 6.4125 0.112501 8.8125C-0.00374916 10.8825 0.0150009 12.9337 0.0150009 15C0.0150009 17.0662 -0.00374916 19.1212 0.112501 21.1875C0.228751 23.5875 0.776252 25.7175 2.53125 27.4725C4.29 29.2313 6.41626 29.775 8.81626 29.8913C10.8863 30.0075 12.9375 29.9888 15.0038 29.9888C17.0738 29.9888 19.125 30.0075 21.1913 29.8913C23.5913 29.775 25.7213 29.2275 27.4763 27.4725C29.235 25.7137 29.7788 23.5875 29.895 21.1875C30.015 19.1212 29.9925 17.07 29.9925 15V15ZM26.6925 23.8425C26.4188 24.525 26.0888 25.035 25.56 25.56C25.0313 26.0887 24.525 26.4188 23.8425 26.6925C21.87 27.4763 17.1863 27.3 15 27.3C12.8138 27.3 8.12626 27.4763 6.15376 26.6963C5.47126 26.4225 4.96126 26.0925 4.43625 25.5638C3.9075 25.035 3.5775 24.5288 3.30375 23.8463C2.52375 21.87 2.7 17.1862 2.7 15C2.7 12.8137 2.52375 8.12625 3.30375 6.15375C3.5775 5.47125 3.9075 4.96125 4.43625 4.43625C4.96501 3.91125 5.47126 3.5775 6.15376 3.30375C8.12626 2.52375 12.8138 2.7 15 2.7C17.1863 2.7 21.8738 2.52375 23.8463 3.30375C24.5288 3.5775 25.0388 3.9075 25.5638 4.43625C26.0925 4.965 26.4225 5.47125 26.6963 6.15375C27.4763 8.12625 27.3 12.8137 27.3 15C27.3 17.1862 27.4763 21.87 26.6925 23.8425Z" fill="#3C403D"/>
</g>
<defs>
<clipPath id="clip0_3536_1625">
<rect width="30" height="30" fill="white"/>
</clipPath>
</defs>
</svg>
