<svg width="17" height="17" viewBox="0 0 17 17" fill="none" xmlns="http://www.w3.org/2000/svg">
<path d="M12.4896 2.06982C11.8608 2.06982 11.2322 2.30996 10.7526 2.78957L8.95484 4.58733L8.78103 4.41352C8.73016 4.36123 8.66931 4.31966 8.6021 4.29127C8.53489 4.26288 8.46267 4.24825 8.38971 4.24825C8.2811 4.24828 8.17497 4.2807 8.08489 4.34136C7.9948 4.40202 7.92485 4.48817 7.88399 4.58879C7.84312 4.68941 7.83319 4.79994 7.85546 4.90623C7.87774 5.01253 7.93121 5.10977 8.00904 5.18552L8.16898 5.34546L3.64153 9.87292C2.99908 10.5154 2.81515 11.2186 2.67867 11.7645C2.54219 12.3104 2.45314 12.6991 2.00371 13.1486C1.90137 13.2509 1.84387 13.3898 1.84387 13.5345C1.84387 13.6793 1.90137 13.8182 2.00371 13.9205L3.09559 15.0124C3.19798 15.1148 3.33682 15.1723 3.48158 15.1723C3.62635 15.1723 3.76519 15.1148 3.86758 15.0124C4.31701 14.563 4.70568 14.4739 5.25162 14.3375C5.79756 14.201 6.50077 14.0171 7.14322 13.3746L11.6707 8.84715L11.8306 9.00709C11.8809 9.05949 11.9412 9.10132 12.0078 9.13014C12.0745 9.15895 12.1463 9.17418 12.2189 9.17492C12.2915 9.17566 12.3636 9.1619 12.4308 9.13444C12.4981 9.10699 12.5592 9.06639 12.6105 9.01503C12.6619 8.96367 12.7025 8.90257 12.73 8.83533C12.7574 8.76808 12.7712 8.69603 12.7704 8.6234C12.7697 8.55076 12.7545 8.47901 12.7257 8.41233C12.6968 8.34566 12.655 8.2854 12.6026 8.2351L12.4288 8.06129L14.2266 6.26353C15.1858 5.30432 15.1858 3.74878 14.2266 2.78957C13.747 2.30996 13.1184 2.06982 12.4896 2.06982ZM8.94098 6.11745L10.8987 8.07515L6.37122 12.6026C5.92179 13.052 5.53312 13.1411 4.98718 13.2776C4.56873 13.3822 4.05911 13.5816 3.55409 13.9269L3.08919 13.462C3.43456 12.957 3.63395 12.4474 3.73856 12.0289C3.87504 11.483 3.96409 11.0943 4.41352 10.6449L8.94098 6.11745Z" fill="white"/>
</svg>
