<svg width="30" height="31" viewBox="0 0 30 31" fill="none" xmlns="http://www.w3.org/2000/svg">
<path d="M22.5001 3.5C21.3483 3.5 20.1969 3.93986 19.3184 4.81836L16.0254 8.11133L15.7071 7.79297C15.6139 7.69717 15.5024 7.62103 15.3793 7.56903C15.2562 7.51704 15.1239 7.49024 14.9903 7.49023C14.7914 7.49029 14.597 7.54967 14.4319 7.66078C14.2669 7.77189 14.1388 7.92969 14.064 8.114C13.9891 8.29832 13.9709 8.50077 14.0117 8.69547C14.0525 8.89017 14.1505 9.06828 14.293 9.20703L14.586 9.5L6.29302 17.793C5.11624 18.9697 4.77935 20.2578 4.52935 21.2578C4.27935 22.2578 4.11624 22.9697 3.29302 23.793C3.10555 23.9805 3.00024 24.2348 3.00024 24.5C3.00024 24.7652 3.10555 25.0195 3.29302 25.207L5.29302 27.207C5.48056 27.3945 5.73488 27.4998 6.00005 27.4998C6.26522 27.4998 6.51954 27.3945 6.70708 27.207C7.53031 26.3838 8.24224 26.2207 9.24224 25.9707C10.2422 25.7207 11.5303 25.3838 12.7071 24.207L21.0001 15.9141L21.293 16.207C21.3852 16.303 21.4955 16.3796 21.6177 16.4324C21.7398 16.4852 21.8712 16.5131 22.0043 16.5144C22.1373 16.5158 22.2693 16.4906 22.3925 16.4403C22.5156 16.39 22.6275 16.3156 22.7216 16.2216C22.8157 16.1275 22.8901 16.0156 22.9404 15.8924C22.9906 15.7692 23.0158 15.6373 23.0145 15.5042C23.0131 15.3712 22.9853 15.2397 22.9325 15.1176C22.8797 14.9955 22.8031 14.8851 22.7071 14.793L22.3887 14.4746L25.6817 11.1816C27.4387 9.42464 27.4387 6.57536 25.6817 4.81836C24.8032 3.93986 23.6518 3.5 22.5001 3.5ZM16.0001 10.9141L19.586 14.5L11.293 22.793C10.4698 23.6162 9.75786 23.7793 8.75786 24.0293C7.99139 24.2209 7.05791 24.5861 6.13286 25.2188L5.2813 24.3672C5.91391 23.4421 6.27914 22.5087 6.47075 21.7422C6.72075 20.7422 6.88386 20.0303 7.70708 19.207L16.0001 10.9141Z" fill="white"/>
</svg>
