<svg width="17" height="17" viewBox="0 0 17 17" fill="none" xmlns="http://www.w3.org/2000/svg">
<path d="M5.077 1.18604C4.93724 1.18604 4.79746 1.23952 4.691 1.34598L1.64142 4.39556C1.42796 4.60902 1.42796 4.95464 1.64142 5.16755L4.80403 8.33016L5.57602 7.55817L2.79941 4.78156L5.077 2.50397L5.78288 3.20985L5.077 3.91573L5.84899 4.68772L6.55487 3.98184L7.14773 4.5747L6.00893 5.71349L6.71482 6.41937L8.6256 4.50859L7.91972 3.8027L5.46299 1.34598C5.35654 1.23952 5.21676 1.18604 5.077 1.18604ZM13.3972 1.73197C13.1181 1.73225 12.8384 1.83974 12.6252 2.05293L11.8543 2.82385L14.0381 5.00761L14.809 4.23668C15.2354 3.81031 15.2364 3.12014 14.8101 2.69377L14.1682 2.05186C13.955 1.83867 13.6764 1.7317 13.3972 1.73197ZM10.7624 3.91573L3.24512 11.4331L3.9382 11.8318L4.21117 12.6508L5.03008 12.9237L5.42887 13.6168L12.9462 6.09949L10.7624 3.91573ZM12.3533 8.23633L10.4426 10.1471L11.1484 10.853L12.2872 9.7142L12.8801 10.3071L12.1742 11.0129L12.9462 11.7849L13.6521 11.0791L14.358 11.7849L12.0804 14.0625L9.30376 11.2859L8.53177 12.0579L11.6944 15.2205C11.8008 15.327 11.9406 15.3805 12.0804 15.3805C12.2201 15.3805 12.3599 15.327 12.4664 15.2205L15.516 12.1709C15.7294 11.958 15.7294 11.6124 15.516 11.3989L13.0592 8.94221L12.3533 8.23633ZM2.51471 13.1381L2.04768 14.457C2.03413 14.4902 2.02725 14.5257 2.02742 14.5615C2.02742 14.6339 2.05618 14.7034 2.10737 14.7546C2.15856 14.8058 2.22799 14.8345 2.30039 14.8345C2.33428 14.8347 2.36791 14.8285 2.39955 14.8164L3.72495 14.3483L2.51471 13.1381Z" fill="white"/>
</svg>
