<svg width="30" height="31" viewBox="0 0 30 31" fill="none" xmlns="http://www.w3.org/2000/svg">
<path d="M8.58597 2.51758C8.32997 2.51758 8.07394 2.61555 7.87894 2.81055L2.29301 8.39648C1.90201 8.78748 1.90201 9.42055 2.29301 9.81055L8.08597 15.6035L9.50004 14.1895L4.4141 9.10352L8.58597 4.93164L9.87894 6.22461L8.58597 7.51758L10 8.93164L11.293 7.63867L12.3789 8.72461L10.293 10.8105L11.586 12.1035L15.086 8.60352L13.793 7.31055L9.29301 2.81055C9.09801 2.61555 8.84197 2.51758 8.58597 2.51758ZM23.8262 3.51758C23.315 3.51808 22.8026 3.71497 22.4121 4.10547L21 5.51758L25 9.51758L26.4121 8.10547C27.1931 7.32447 27.1951 6.0603 26.4141 5.2793L25.2383 4.10352C24.8478 3.71302 24.3375 3.51708 23.8262 3.51758ZM19 7.51758L5.23051 21.2871L6.50004 22.0176L7.00004 23.5176L8.50004 24.0176L9.23051 25.2871L23 11.5176L19 7.51758ZM21.9141 15.4316L18.4141 18.9316L19.7071 20.2246L21.793 18.1387L22.8789 19.2246L21.586 20.5176L23 21.9316L24.293 20.6387L25.586 21.9316L21.4141 26.1035L16.3282 21.0176L14.9141 22.4316L20.7071 28.2246C20.9021 28.4196 21.1581 28.5176 21.4141 28.5176C21.6701 28.5176 21.9261 28.4196 22.1211 28.2246L27.7071 22.6387C28.0981 22.2487 28.0981 21.6156 27.7071 21.2246L23.2071 16.7246L21.9141 15.4316ZM3.89262 24.4102L3.03715 26.8262C3.01234 26.8869 2.99973 26.952 3.00004 27.0176C3.00004 27.1502 3.05272 27.2774 3.14648 27.3711C3.24025 27.4649 3.36743 27.5176 3.50004 27.5176C3.56212 27.5179 3.62372 27.5066 3.68168 27.4844L6.10941 26.627L3.89262 24.4102Z" fill="white"/>
</svg>
