<svg width="17" height="17" viewBox="0 0 17 17" fill="none" xmlns="http://www.w3.org/2000/svg">
<path d="M12.7854 1.72607C12.506 1.72607 12.2266 1.83277 12.0134 2.04596L10.6955 3.36389L13.4252 6.09359L14.7431 4.77566C15.1695 4.34928 15.1695 3.65805 14.7431 3.23167L13.5574 2.04596C13.3442 1.83277 13.0648 1.72607 12.7854 1.72607ZM9.6036 4.45577L3.19414 10.8652C3.19414 10.8652 3.69519 10.8203 3.8819 11.007C4.06861 11.1938 3.91491 12.4156 4.14421 12.6449C4.3735 12.8742 5.58761 12.7128 5.76176 12.8869C5.93592 13.0611 5.92384 13.5949 5.92384 13.5949L12.3333 7.18547L9.6036 4.45577ZM2.50639 12.6449L1.99137 14.1035C1.97113 14.1611 1.96067 14.2217 1.96045 14.2827C1.96045 14.4275 2.01797 14.5663 2.12035 14.6687C2.22273 14.7711 2.3616 14.8286 2.50639 14.8286C2.56741 14.8284 2.62796 14.8179 2.68552 14.7977C2.68731 14.797 2.68908 14.7963 2.69086 14.7956L2.70472 14.7913C2.70579 14.7906 2.70685 14.7899 2.70792 14.7892L4.14421 14.2827L3.3253 13.4638L2.50639 12.6449Z" fill="white"/>
</svg>
