<svg width="25" height="24" viewBox="0 0 25 24" fill="none" xmlns="http://www.w3.org/2000/svg">
<g clip-path="url(#clip0_877_1996)">
<path d="M13.2687 4.56163C12.8429 4.13583 12.1503 4.13583 11.7245 4.56163L9.40828 6.87785C8.98249 7.30365 8.98249 7.9962 9.40828 8.422L11.7245 10.7382C12.1503 11.164 12.8429 11.164 13.2687 10.7382L15.5849 8.422C16.0107 7.9962 16.0107 7.30365 15.5849 6.87785L13.2687 4.56163ZM17.9011 9.19407C17.4753 8.76827 16.7828 8.76827 16.357 9.19407L14.0407 11.5103C13.6149 11.9361 13.6149 12.6286 14.0407 13.0544L16.357 15.3707C16.7828 15.7965 17.4753 15.7965 17.9011 15.3707L20.2173 13.0544C20.6431 12.6286 20.6431 11.9361 20.2173 11.5103L17.9011 9.19407ZM8.63621 9.19407C8.21041 8.76827 7.51786 8.76827 7.09206 9.19407L4.77584 11.5103C4.35004 11.9361 4.35004 12.6286 4.77584 13.0544L7.09206 15.3707C7.51786 15.7965 8.21041 15.7965 8.63621 15.3707L10.9524 13.0544C11.3782 12.6286 11.3782 11.9361 10.9524 11.5103L8.63621 9.19407ZM13.2687 13.8265C12.8429 13.4007 12.1503 13.4007 11.7245 13.8265L9.40828 16.1427C8.98249 16.5685 8.98249 17.2611 9.40828 17.6869L11.7245 20.0031C12.1503 20.4289 12.8429 20.4289 13.2687 20.0031L15.5849 17.6869C16.0107 17.2611 16.0107 16.5685 15.5849 16.1427L13.2687 13.8265Z" fill="white"/>
</g>
<defs>
<clipPath id="clip0_877_1996">
<rect width="16.3782" height="16.3782" fill="white" transform="translate(12.4968 0.702637) rotate(45)"/>
</clipPath>
</defs>
</svg>
