<svg width="43" height="43" viewBox="0 0 43 43" fill="none" xmlns="http://www.w3.org/2000/svg">
<g clip-path="url(#clip0_877_1996)">
<path d="M22.6273 7.37515C21.8474 6.59521 20.5789 6.59521 19.7989 7.37515L15.5563 11.6178C14.7763 12.3977 14.7763 13.6663 15.5563 14.4462L19.7989 18.6889C20.5789 19.4688 21.8474 19.4688 22.6273 18.6889L26.87 14.4462C27.6499 13.6663 27.6499 12.3977 26.87 11.6178L22.6273 7.37515ZM31.1126 15.8604C30.3327 15.0805 29.0641 15.0805 28.2842 15.8604L24.0416 20.1031C23.2616 20.883 23.2616 22.1516 24.0416 22.9315L28.2842 27.1741C29.0641 27.9541 30.3327 27.9541 31.1126 27.1741L35.3553 22.9315C36.1352 22.1516 36.1352 20.883 35.3553 20.1031L31.1126 15.8604ZM14.1421 15.8604C13.3621 15.0805 12.0936 15.0805 11.3136 15.8604L7.071 20.1031C6.29106 20.883 6.29106 22.1516 7.071 22.9315L11.3136 27.1741C12.0936 27.9541 13.3621 27.9541 14.1421 27.1741L18.3847 22.9315C19.1646 22.1516 19.1646 20.883 18.3847 20.1031L14.1421 15.8604ZM22.6273 24.3457C21.8474 23.5658 20.5789 23.5658 19.7989 24.3457L15.5563 28.5884C14.7763 29.3683 14.7763 30.6368 15.5563 31.4168L19.7989 35.6594C20.5789 36.4394 21.8474 36.4394 22.6273 35.6594L26.87 31.4168C27.6499 30.6368 27.6499 29.3683 26.87 28.5884L22.6273 24.3457Z" fill="white"/>
</g>
<defs>
<clipPath id="clip0_877_1996">
<rect width="30" height="30" fill="white" transform="translate(21.2131 0.304199) rotate(45)"/>
</clipPath>
</defs>
</svg>
