<svg width="375" height="60" viewBox="0 0 375 60" fill="none" xmlns="http://www.w3.org/2000/svg">
<g clip-path="url(#clip0_1013_913)">
<rect width="375" height="60" fill="#E6E9EE"/>
<path d="M16.3066 34.7534H31.9822" stroke="#14142B"/>
<path d="M16.3066 27.7534H39.6931" stroke="#14142B"/>
<path d="M16.3066 41.7534H39.6931" stroke="#14142B"/>
<path d="M299 44C303.971 44 308 39.9706 308 35C308 30.0294 303.971 26 299 26C294.029 26 290 30.0294 290 35C290 39.9706 294.029 44 299 44Z" stroke="#14142B"/>
<path d="M310 45.9999L306.782 42.7822" stroke="#14142B"/>
<path d="M331.496 47.28L332.312 30.7207H348.659L349.475 47.28H331.496Z" stroke="#14142B"/>
<path d="M336.16 34.1491L336.16 29.5514C336.16 28.4044 336.616 27.3043 337.427 26.4933C338.238 25.6822 339.338 25.2266 340.485 25.2266C341.632 25.2266 342.732 25.6822 343.543 26.4933C344.354 27.3043 344.81 28.4044 344.81 29.5514V34.1491" stroke="#14142B"/>
<g opacity="0.8" clip-path="url(#clip1_1013_913)">
<path d="M144.183 43.3806V50.629H142V34.6084H152.667L152.955 36.1322C152.914 36.1322 152.914 36.1322 152.873 36.091C152.79 36.091 152.749 36.091 152.749 36.0498C152.584 35.8027 151.967 35.5556 150.937 35.3085C149.866 35.0614 148.466 34.9379 146.695 34.9379H144.183V42.9688H151.143V43.3394H144.183V43.3806Z" fill="black"/>
<path d="M160.286 46.099C160.286 45.6871 160.286 45.2753 160.286 44.8634C160.286 44.4104 160.244 43.9986 160.244 43.5455C160.08 43.9162 159.791 44.1633 159.38 44.4104C158.968 44.6163 158.515 44.8223 158.021 44.987C157.526 45.1517 156.991 45.3165 156.456 45.44C155.92 45.6048 155.385 45.7695 154.932 46.0166C154.479 46.2637 154.108 46.552 153.82 46.9226C153.531 47.2933 153.367 47.7875 153.367 48.3641C153.367 49.023 153.531 49.4761 153.861 49.8055C154.19 50.135 154.643 50.2997 155.22 50.2997C155.797 50.2997 156.538 50.135 157.32 49.7643C158.144 49.3937 159.05 48.8583 160.039 48.1582C159.791 48.4053 159.462 48.6936 159.05 49.023C158.638 49.3525 158.144 49.6408 157.609 49.9291C157.073 50.2174 156.538 50.4645 156.003 50.6292C155.426 50.8351 154.932 50.9175 154.479 50.9175C154.108 50.9175 153.696 50.8763 153.326 50.7939C152.955 50.7116 152.584 50.588 152.255 50.3821C151.925 50.1762 151.678 49.9291 151.472 49.5996C151.266 49.2701 151.143 48.8171 151.143 48.2817C151.143 47.8287 151.266 47.4168 151.513 47.0874C151.761 46.7579 152.09 46.4696 152.502 46.2225C152.914 45.9754 153.408 45.7695 153.943 45.6048C154.479 45.44 155.014 45.2753 155.591 45.1517C156.167 44.987 156.703 44.8634 157.238 44.7399C157.773 44.6163 158.268 44.4516 158.68 44.2869C159.133 44.1221 159.462 43.9162 159.75 43.7103C159.997 43.4632 160.162 43.2161 160.203 42.8866C160.121 42.3924 160.039 41.9394 159.874 41.4863C159.75 41.0333 159.544 40.6627 159.297 40.3332C159.05 40.0037 158.721 39.7566 158.35 39.5507C157.979 39.3448 157.485 39.3036 156.95 39.3036C156.126 39.3448 155.508 39.4271 155.096 39.5919C154.685 39.7566 154.396 39.9625 154.19 40.2096C153.985 40.4567 153.943 40.7039 153.943 40.9921C153.943 41.2804 153.943 41.5275 153.943 41.7746C153.943 42.0629 153.861 42.2688 153.696 42.4336C153.531 42.5983 153.326 42.6395 153.078 42.6395C152.831 42.6395 152.584 42.5571 152.337 42.3512C152.09 42.1453 152.008 41.8982 152.008 41.5687C152.008 41.1157 152.214 40.7039 152.584 40.3744C152.955 40.0449 153.449 39.7566 153.985 39.5507C154.52 39.3448 155.096 39.18 155.673 39.0977C156.25 39.0153 156.703 38.9741 157.073 38.9741C158.226 38.9741 159.174 39.1389 159.874 39.4683C160.574 39.7978 161.109 40.2508 161.48 40.7862C161.851 41.3216 162.098 41.9806 162.221 42.7219C162.345 43.4632 162.386 44.2045 162.386 45.0282V50.6704H160.327V46.099H160.286Z" fill="black"/>
<path d="M166.916 49.8057C167.122 50.094 167.452 50.2999 167.905 50.4235C168.358 50.547 168.811 50.6294 169.346 50.6294C169.84 50.6294 170.376 50.5882 170.87 50.4646C171.405 50.3411 171.858 50.1763 172.27 49.9704C172.682 49.7645 173.053 49.5174 173.3 49.1879C173.588 48.8996 173.712 48.529 173.712 48.1171C173.712 47.6229 173.506 47.2111 173.053 46.9228C172.6 46.6345 172.023 46.3874 171.364 46.1815C170.705 45.9756 169.964 45.7697 169.182 45.6049C168.399 45.4402 167.658 45.1931 166.999 44.946C166.34 44.6577 165.763 44.3282 165.31 43.8752C164.857 43.4222 164.651 42.8456 164.651 42.1455C164.651 41.4865 164.816 40.9511 165.145 40.5393C165.475 40.1274 165.928 39.798 166.422 39.5509C166.958 39.3038 167.493 39.139 168.111 39.0567C168.729 38.9743 169.264 38.9331 169.799 38.9331C170.046 38.9331 170.376 38.9743 170.788 39.0155C171.2 39.0567 171.611 39.1802 171.982 39.3449C172.353 39.5097 172.723 39.6744 173.012 39.9215C173.3 40.1686 173.465 40.4981 173.465 40.8688C173.465 41.1159 173.382 41.3218 173.176 41.4865C172.97 41.6513 172.765 41.7336 172.517 41.7336C172.188 41.7336 171.982 41.6513 171.817 41.5277C171.653 41.4041 171.57 41.2394 171.488 41.0335C171.405 40.8688 171.364 40.6628 171.323 40.4569C171.282 40.251 171.241 40.0863 171.117 39.9627C170.911 39.7156 170.664 39.5097 170.417 39.4273C170.129 39.3449 169.799 39.2626 169.429 39.2626C169.017 39.2626 168.605 39.3038 168.193 39.3861C167.74 39.4685 167.369 39.5921 166.999 39.7568C166.628 39.9215 166.34 40.1686 166.134 40.4157C165.887 40.704 165.804 41.0335 165.804 41.4041C165.804 41.7748 165.928 42.1043 166.216 42.3514C166.463 42.5985 166.834 42.8044 167.246 43.0103C167.658 43.1751 168.152 43.3398 168.729 43.4633C169.264 43.5869 169.84 43.7105 170.417 43.8752C170.994 44.0399 171.57 44.2047 172.106 44.3694C172.641 44.5341 173.135 44.7812 173.588 45.0283C174 45.2754 174.371 45.6049 174.618 45.9756C174.865 46.3462 175.03 46.8404 175.03 47.3758C175.03 47.9936 174.865 48.529 174.535 48.982C174.206 49.435 173.794 49.7645 173.259 50.0528C172.723 50.3411 172.147 50.547 171.488 50.6706C170.829 50.7941 170.129 50.8765 169.429 50.8765C169.182 50.8765 168.934 50.8765 168.605 50.8353C168.275 50.7941 167.946 50.7941 167.575 50.7117C167.205 50.6706 166.875 50.5882 166.505 50.4646C166.134 50.3823 165.846 50.2587 165.557 50.094C165.269 49.9292 165.063 49.7645 164.857 49.5586C164.692 49.3527 164.61 49.1056 164.61 48.7761C164.61 48.529 164.692 48.3643 164.898 48.1995C165.104 48.0348 165.31 47.9524 165.557 47.9524C165.887 47.9524 166.093 48.0348 166.257 48.1583C166.422 48.2819 166.505 48.4466 166.587 48.6525C166.628 48.8585 166.71 49.0232 166.71 49.2291C166.752 49.5174 166.834 49.6821 166.916 49.8057Z" fill="black"/>
<path d="M176.594 34.6086L178.654 33.4966V50.6703H176.594V34.6086ZM178.901 40.3331C179.066 40.086 179.313 39.8801 179.56 39.7154C179.807 39.5506 180.095 39.3859 180.425 39.3035C180.754 39.2212 181.042 39.0976 181.372 39.0564C181.701 39.0152 181.99 38.9741 182.319 38.9741C183.266 38.9741 184.049 39.0976 184.667 39.3035C185.284 39.5095 185.82 39.8389 186.19 40.2096C186.602 40.5802 186.89 41.0333 187.096 41.5275C187.302 42.0217 187.467 42.5571 187.549 43.0925C187.632 43.669 187.673 44.2044 187.714 44.8222C187.714 45.3988 187.714 45.9754 187.714 46.5107V50.6703H185.655V46.3048C185.655 45.893 185.655 45.4811 185.655 44.9869C185.655 44.4927 185.614 43.9985 185.573 43.4631C185.531 42.9277 185.408 42.4335 185.284 41.9393C185.161 41.4451 184.955 41.0333 184.708 40.6214C184.461 40.2508 184.09 39.9213 183.678 39.7154C183.266 39.4683 182.731 39.3447 182.072 39.3447C181.537 39.3447 181.125 39.3859 180.754 39.4683C180.383 39.5506 180.095 39.633 179.848 39.7154C179.601 39.7977 179.395 39.9213 179.271 40.0448C179.107 40.1684 178.983 40.2508 178.901 40.3331Z" fill="black"/>
<path d="M192.381 38.6036V50.6293H190.322V39.7155L192.381 38.6036Z" fill="black"/>
<path d="M189.758 35.0611C189.433 35.2318 188.631 35.3076 188.631 35.3076V35.611C188.631 35.611 189.433 35.6869 189.758 35.8576C190.063 36.0282 190.33 36.2558 190.521 36.5592C190.731 36.8625 190.865 37.2039 190.961 37.6021C191.056 38.0003 191.094 38.3435 191.094 38.3435H191.362C191.362 38.3435 191.456 37.7991 191.495 37.6021C191.591 37.2039 191.743 36.8625 191.934 36.5592C192.125 36.2558 192.374 36.0282 192.698 35.8576C193.023 35.6869 193.825 35.611 193.825 35.611V35.3076C193.825 35.3076 193.023 35.2318 192.698 35.0611C192.393 34.8905 192.125 34.6629 191.934 34.3595C191.724 34.0561 191.591 33.7148 191.495 33.3166C191.451 33.0819 191.362 32.4839 191.362 32.4839H191.094C191.094 32.4839 191.005 33.165 190.961 33.3166C190.865 33.7148 190.712 34.0561 190.521 34.3595C190.33 34.6629 190.082 34.8905 189.758 35.0611Z" fill="black"/>
<path d="M194.858 44.946C194.858 44.1635 194.982 43.4222 195.229 42.6809C195.476 41.9395 195.888 41.3218 196.423 40.7452C196.959 40.1686 197.618 39.7568 198.4 39.4273C199.183 39.0978 200.13 38.9331 201.201 38.9331C202.272 38.9331 203.219 39.0978 204.001 39.4273C204.784 39.7568 205.443 40.2098 205.978 40.7864C206.513 41.363 206.884 41.9807 207.131 42.722C207.378 43.4222 207.502 44.2047 207.502 44.946C207.502 45.7285 207.378 46.4698 207.131 47.2111C206.884 47.9524 206.472 48.5702 205.937 49.1467C205.402 49.7233 204.743 50.1352 203.96 50.4646C203.178 50.7941 202.23 50.9588 201.201 50.9588C200.171 50.9588 199.183 50.7941 198.4 50.4646C197.618 50.1352 196.959 49.6821 196.423 49.1056C195.888 48.529 195.517 47.9112 195.229 47.1699C194.982 46.4698 194.858 45.7285 194.858 44.946ZM200.13 39.4273C199.43 39.4273 198.853 39.592 198.4 39.9215C197.947 40.251 197.577 40.6628 197.329 41.157C197.082 41.6513 196.959 42.269 196.876 42.928C196.835 43.5869 196.876 44.287 197 44.9872C197.124 45.6873 197.329 46.3462 197.659 47.0464C197.947 47.7053 198.318 48.2819 198.771 48.8173C199.224 49.3115 199.718 49.7645 200.295 50.0528C200.871 50.3823 201.489 50.547 202.189 50.547C202.889 50.547 203.425 50.3823 203.878 50.0528C204.331 49.7233 204.66 49.3115 204.907 48.8173C205.154 48.3231 205.278 47.7053 205.36 47.0464C205.402 46.3874 205.36 45.6873 205.237 44.9872C205.113 44.287 204.866 43.6281 204.578 42.928C204.29 42.269 203.919 41.6924 203.466 41.157C203.013 40.6628 202.519 40.2098 201.942 39.9215C201.365 39.6332 200.83 39.4273 200.13 39.4273Z" fill="black"/>
<path d="M209.268 39.7155L211.328 38.6035V50.6293H209.268V39.7155ZM211.533 40.3332C211.698 40.0861 211.945 39.8802 212.192 39.7155C212.439 39.5507 212.728 39.386 213.057 39.3036C213.387 39.2213 213.675 39.0977 214.004 39.0565C214.334 39.0154 214.622 38.9742 214.952 38.9742C215.899 38.9742 216.681 39.0977 217.299 39.3036C217.917 39.5096 218.452 39.839 218.823 40.2097C219.235 40.5804 219.523 41.0334 219.729 41.5276C219.935 42.0218 220.1 42.5572 220.182 43.0926C220.264 43.6692 220.306 44.2045 220.347 44.8223C220.347 45.3989 220.347 45.9755 220.347 46.5109V50.6704H218.288V46.3049C218.288 45.8931 218.288 45.4813 218.288 44.987C218.288 44.4928 218.246 43.9986 218.205 43.4632C218.164 42.9278 218.041 42.4336 217.917 41.9394C217.793 41.4452 217.587 41.0334 217.34 40.6215C217.093 40.2509 216.723 39.9214 216.311 39.7155C215.899 39.4684 215.364 39.3448 214.705 39.3448C214.169 39.3448 213.757 39.386 213.387 39.4684C213.016 39.5507 212.728 39.6331 212.481 39.7155C212.234 39.7979 212.028 39.9214 211.904 40.045C211.739 40.1685 211.616 40.2509 211.533 40.3332Z" fill="black"/>
<path d="M164.481 19.8647C166.129 19.8647 167.57 20.1119 168.806 20.5649C170.041 21.0591 171.071 21.6768 171.894 22.4593C172.718 23.2418 173.336 24.1067 173.748 25.1363C174.16 26.1247 174.366 27.1543 174.366 28.2251C174.366 29.2547 174.16 30.2843 173.748 31.2727C173.336 32.2611 172.718 33.1672 171.894 33.9497C171.071 34.7322 170.041 35.3499 168.806 35.8442C167.57 36.3384 166.129 36.5855 164.481 36.5855C162.834 36.5855 161.393 36.3384 160.157 35.8442C158.921 35.3499 157.892 34.7322 157.068 33.9497C156.245 33.1672 155.627 32.2611 155.215 31.2727C154.803 30.2843 154.597 29.2547 154.597 28.2251C154.597 27.1543 154.803 26.1659 155.215 25.1363C155.627 24.1479 156.245 23.2418 157.068 22.4593C157.892 21.6768 158.921 21.0591 160.157 20.5649C161.393 20.1119 162.834 19.8647 164.481 19.8647ZM165.717 36.0501C166.952 36.0501 168.023 35.8442 168.888 35.3911C169.753 34.9381 170.453 34.3615 170.988 33.6202C171.524 32.8789 171.853 32.0552 172.018 31.108C172.183 30.1608 172.183 29.2135 172.059 28.2251C171.894 27.2367 171.606 26.2895 171.112 25.3422C170.618 24.395 170.041 23.5713 169.3 22.83C168.559 22.0887 167.694 21.5121 166.664 21.0591C165.634 20.6061 164.523 20.4001 163.287 20.4001C162.01 20.4001 160.94 20.6061 160.075 21.0591C159.21 21.5121 158.51 22.0887 158.015 22.83C157.48 23.5713 157.151 24.395 156.986 25.3422C156.821 26.2895 156.821 27.2367 156.945 28.2251C157.109 29.2135 157.398 30.1608 157.851 31.108C158.304 32.0552 158.921 32.8789 159.663 33.6202C160.404 34.3615 161.31 34.9381 162.299 35.3911C163.328 35.803 164.481 36.0501 165.717 36.0501Z" fill="black"/>
<path d="M176.594 23.736L178.654 22.624V29.4606C178.695 30.1607 178.818 30.8608 179.024 31.4786C179.23 32.0964 179.519 32.6729 179.93 33.126C180.301 33.579 180.754 33.9908 181.331 34.2379C181.866 34.5262 182.484 34.6498 183.184 34.6498C184.049 34.6498 184.708 34.3615 185.243 33.8261C185.779 33.2907 186.108 32.5906 186.314 31.7669C186.52 30.9432 186.561 30.0372 186.479 29.0899C186.396 28.1427 186.149 27.2366 185.779 26.413C185.408 25.5893 184.914 24.8891 184.296 24.3538C183.678 23.8184 182.937 23.5301 182.113 23.5301C181.825 23.5301 181.495 23.5713 181.207 23.6948C180.919 23.8184 180.631 23.9419 180.342 24.1066C180.054 24.2714 179.807 24.4773 179.601 24.6832C179.354 24.8891 179.189 25.1362 179.066 25.3422C179.395 24.642 179.93 24.0655 180.631 23.6124C181.372 23.1594 182.154 22.9535 182.978 22.9535C184.008 22.9535 184.872 23.1182 185.614 23.4477C186.355 23.7772 186.932 24.2302 187.426 24.8068C187.879 25.3834 188.25 26.0011 188.455 26.7424C188.661 27.4837 188.785 28.1839 188.785 28.9664C188.785 29.7489 188.661 30.449 188.455 31.1903C188.25 31.8904 187.879 32.5494 187.426 33.126C186.973 33.7025 186.355 34.1556 185.614 34.485C184.872 34.8145 184.008 35.0204 183.019 35.0204C181.948 35.0204 181.042 34.8557 180.342 34.5674C179.642 34.2791 179.107 33.8673 178.695 33.3731V40.4155H176.636V23.736H176.594Z" fill="black"/>
<path d="M193.595 26.9072C193.595 27.6897 193.719 28.4722 193.966 29.2958C194.213 30.1195 194.584 30.8196 195.037 31.5198C195.49 32.1787 196.066 32.7141 196.725 33.126C197.384 33.5378 198.126 33.7437 198.908 33.7437C199.649 33.7437 200.308 33.579 200.885 33.2907C201.462 32.9612 201.956 32.5906 202.368 32.1787C202.779 31.7669 203.109 31.3139 203.315 30.902C203.562 30.4902 203.686 30.1607 203.686 29.9548C203.644 30.4902 203.438 31.0668 203.109 31.6021C202.779 32.1375 202.368 32.6317 201.832 33.0848C201.297 33.5378 200.72 33.8673 200.02 34.1556C199.32 34.4027 198.579 34.5674 197.796 34.5674C196.725 34.5674 195.778 34.4027 194.996 34.0732C194.213 33.7437 193.554 33.2907 193.019 32.7141C192.483 32.1375 192.113 31.5198 191.825 30.7785C191.577 30.0783 191.454 29.2958 191.454 28.5545C191.454 27.5249 191.619 26.6601 191.948 25.9187C192.278 25.1774 192.731 24.5597 193.266 24.0655C193.801 23.5713 194.419 23.2006 195.119 22.9947C195.819 22.7476 196.519 22.624 197.22 22.624C197.755 22.624 198.29 22.7064 198.785 22.8711C199.32 23.0359 199.773 23.283 200.226 23.6124C200.679 23.9419 201.05 24.3126 201.379 24.7244C201.709 25.1774 201.956 25.6305 202.162 26.1659C202.244 26.413 202.203 26.6189 202.079 26.7836C201.956 26.9483 201.75 27.0307 201.462 27.0307H193.595V26.9072ZM196.808 22.9123C196.272 22.9123 195.819 22.9947 195.408 23.2006C194.996 23.4065 194.666 23.6536 194.419 23.9831C194.172 24.3126 193.966 24.7244 193.801 25.1362C193.678 25.5893 193.595 26.0423 193.554 26.5365H200.308C200.226 26.2482 200.103 25.9187 199.938 25.5069C199.773 25.0951 199.526 24.6832 199.238 24.3126C198.949 23.9419 198.62 23.6124 198.208 23.3242C197.796 23.0359 197.302 22.9123 196.808 22.9123Z" fill="black"/>
<path d="M204.804 23.6125L206.863 22.5005V34.5262H204.804V23.6125ZM207.11 24.2302C207.275 23.9831 207.522 23.7772 207.769 23.6125C208.016 23.4477 208.304 23.283 208.634 23.2006C208.963 23.0771 209.252 22.9947 209.581 22.9535C209.911 22.9123 210.199 22.8711 210.528 22.8711C211.476 22.8711 212.258 22.9947 212.876 23.2006C213.494 23.4065 214.029 23.736 214.4 24.1067C214.811 24.4773 215.1 24.9303 215.306 25.4246C215.512 25.9188 215.676 26.4542 215.759 26.9895C215.841 27.5661 215.882 28.1015 215.923 28.7193C215.923 29.2959 215.923 29.8724 215.923 30.4078V34.5674H213.864V30.2019C213.864 29.7901 213.864 29.3782 213.864 28.8428C213.864 28.3486 213.823 27.8544 213.782 27.319C213.741 26.7836 213.617 26.2894 213.494 25.7952C213.37 25.301 213.164 24.8892 212.917 24.4773C212.67 24.1067 212.299 23.7772 211.887 23.5301C211.476 23.283 210.94 23.1594 210.281 23.1594C209.746 23.1594 209.334 23.2006 208.963 23.283C208.593 23.3654 208.304 23.4477 208.057 23.5301C207.81 23.6125 207.604 23.736 207.481 23.8596C207.316 24.0243 207.192 24.1478 207.11 24.2302Z" fill="black"/>
</g>
</g>
<defs>
<clipPath id="clip0_1013_913">
<rect width="375" height="60" fill="white"/>
</clipPath>
<clipPath id="clip1_1013_913">
<rect width="78.0849" height="32" fill="white" transform="translate(142 19)"/>
</clipPath>
</defs>
</svg>
