<svg width="23" height="23" viewBox="0 0 23 23" fill="none" xmlns="http://www.w3.org/2000/svg">
<path d="M20.1707 8.41915C20.1131 8.24934 20.007 8.10013 19.8655 7.98994C19.724 7.87975 19.5533 7.81341 19.3746 7.7991L14.1454 7.38359L11.8826 2.37458C11.8105 2.21324 11.6933 2.07622 11.5451 1.98003C11.3969 1.88385 11.224 1.83262 11.0473 1.83252C10.8706 1.83242 10.6977 1.88347 10.5493 1.97949C10.401 2.07551 10.2836 2.21241 10.2114 2.37366L7.94858 7.38359L2.71943 7.7991C2.54374 7.81302 2.37578 7.87726 2.23564 7.98413C2.0955 8.09101 1.98912 8.236 1.92923 8.40175C1.86933 8.5675 1.85846 8.747 1.89791 8.91877C1.93735 9.09054 2.02545 9.24731 2.15166 9.37032L6.01597 13.1374L4.64929 19.0554C4.60779 19.2345 4.62109 19.422 4.68747 19.5935C4.75384 19.765 4.87022 19.9125 5.02151 20.0171C5.17279 20.1216 5.352 20.1782 5.53587 20.1796C5.71975 20.181 5.8998 20.1271 6.05266 20.0249L11.047 16.6954L16.0413 20.0249C16.1976 20.1286 16.3818 20.182 16.5693 20.1779C16.7568 20.1738 16.9386 20.1124 17.0901 20.0019C17.2416 19.8914 17.3557 19.7372 17.417 19.5599C17.4782 19.3827 17.4838 19.1909 17.4328 19.0105L15.7552 13.1402L19.9157 9.396C20.1882 9.15018 20.2881 8.76678 20.1707 8.41915Z" fill="#23856D"/>
</svg>
