<svg width="23" height="23" viewBox="0 0 23 23" fill="none" xmlns="http://www.w3.org/2000/svg">
<path d="M20.1457 8.41915C20.0881 8.24934 19.9819 8.10013 19.8404 7.98994C19.699 7.87975 19.5283 7.81341 19.3495 7.7991L14.1204 7.38359L11.8576 2.37458C11.7855 2.21324 11.6683 2.07622 11.5201 1.98003C11.3719 1.88385 11.199 1.83262 11.0223 1.83252C10.8456 1.83242 10.6726 1.88347 10.5243 1.97949C10.376 2.07551 10.2586 2.21241 10.1864 2.37366L7.92356 7.38359L2.69441 7.7991C2.51871 7.81302 2.35075 7.87726 2.21062 7.98413C2.07048 8.09101 1.9641 8.236 1.9042 8.40175C1.84431 8.5675 1.83343 8.747 1.87288 8.91877C1.91233 9.09054 2.00043 9.24731 2.12664 9.37032L5.99095 13.1374L4.62427 19.0554C4.58277 19.2345 4.59607 19.422 4.66244 19.5935C4.72881 19.765 4.8452 19.9125 4.99648 20.0171C5.14777 20.1216 5.32698 20.1782 5.51085 20.1796C5.69472 20.181 5.87477 20.1271 6.02763 20.0249L11.022 16.6954L16.0163 20.0249C16.1726 20.1286 16.3568 20.182 16.5443 20.1779C16.7318 20.1738 16.9135 20.1124 17.0651 20.0019C17.2166 19.8914 17.3307 19.7372 17.392 19.5599C17.4532 19.3827 17.4587 19.1909 17.4078 19.0105L15.7301 13.1402L19.8907 9.396C20.1631 9.15018 20.2631 8.76678 20.1457 8.41915Z" fill="#23856D"/>
</svg>
