<svg width="16" height="16" viewBox="0 0 16 16" fill="none" xmlns="http://www.w3.org/2000/svg">
<g clip-path="url(#clip0_3504_66)">
<path d="M4.526 14.0007C10.564 14.0007 13.867 8.99769 13.867 4.66669C13.867 4.52669 13.867 4.38469 13.861 4.24469C14.5041 3.77918 15.0591 3.20284 15.5 2.54269C14.8993 2.80754 14.2628 2.9821 13.611 3.06069C14.2975 2.65033 14.8117 2.00466 15.058 1.24369C14.413 1.62582 13.707 1.89407 12.971 2.03669C12.4762 1.50972 11.8214 1.16061 11.1081 1.04345C10.3948 0.92629 9.66272 1.04761 9.02534 1.38863C8.38796 1.72965 7.88081 2.27132 7.58245 2.92975C7.28409 3.58818 7.21118 4.32663 7.375 5.03069C6.06974 4.96524 4.79282 4.62616 3.62704 4.03544C2.46127 3.44471 1.43268 2.61554 0.608 1.60169C0.18934 2.32478 0.0615737 3.18009 0.250646 3.99396C0.439718 4.80782 0.931455 5.51922 1.626 5.98369C1.10554 5.96601 0.596521 5.82625 0.14 5.57569V5.62069C0.140897 6.37817 0.403307 7.11211 0.882874 7.69845C1.36244 8.28479 2.02975 8.68757 2.772 8.83869C2.49026 8.91631 2.19923 8.955 1.907 8.95369C1.70098 8.95432 1.49538 8.93523 1.293 8.89669C1.50279 9.54875 1.91127 10.1189 2.46125 10.5272C3.01122 10.9355 3.67513 11.1615 4.36 11.1737C3.19656 12.0875 1.7594 12.5831 0.28 12.5807C0.0193207 12.5818 -0.241177 12.5668 -0.5 12.5357C1.00151 13.493 2.7453 14.0012 4.526 14.0007Z" fill="white"/>
</g>
<defs>
<clipPath id="clip0_3504_66">
<rect width="16" height="16" fill="white"/>
</clipPath>
</defs>
</svg>
