<svg width="23" height="23" viewBox="0 0 23 23" fill="none" xmlns="http://www.w3.org/2000/svg">
<path d="M20.1308 8.41915C20.0731 8.24934 19.967 8.10013 19.8255 7.98994C19.684 7.87975 19.5133 7.81341 19.3346 7.7991L14.1054 7.38359L11.8426 2.37458C11.7706 2.21324 11.6533 2.07622 11.5051 1.98003C11.3569 1.88385 11.184 1.83262 11.0073 1.83252C10.8306 1.83242 10.6577 1.88347 10.5094 1.97949C10.361 2.07551 10.2437 2.21241 10.1714 2.37366L7.9086 7.38359L2.67945 7.7991C2.50376 7.81302 2.3358 7.87726 2.19566 7.98413C2.05552 8.09101 1.94914 8.236 1.88925 8.40175C1.82935 8.5675 1.81848 8.747 1.85793 8.91877C1.89737 9.09054 1.98547 9.24731 2.11168 9.37032L5.97599 13.1374L4.60931 19.0554C4.56782 19.2345 4.58112 19.422 4.64749 19.5935C4.71386 19.765 4.83024 19.9125 4.98153 20.0171C5.13282 20.1216 5.31202 20.1782 5.4959 20.1796C5.67977 20.181 5.85982 20.1271 6.01268 20.0249L11.007 16.6954L16.0014 20.0249C16.1576 20.1286 16.3419 20.182 16.5294 20.1779C16.7168 20.1738 16.8986 20.1124 17.0501 20.0019C17.2017 19.8914 17.3157 19.7372 17.377 19.5599C17.4383 19.3827 17.4438 19.1909 17.3928 19.0105L15.7152 13.1402L19.8758 9.396C20.1482 9.15018 20.2482 8.76678 20.1308 8.41915Z" fill="#23856D"/>
</svg>
