<svg width="16" height="16" viewBox="0 0 16 16" fill="none" xmlns="http://www.w3.org/2000/svg">
<g clip-path="url(#clip0_3504_60)">
<path d="M8.551 1.99902H8.64C9.462 2.00202 13.627 2.03202 14.75 2.33402C15.0895 2.42619 15.3989 2.60585 15.6472 2.85503C15.8955 3.10422 16.074 3.41421 16.165 3.75402C16.266 4.13402 16.337 4.63702 16.385 5.15602L16.395 5.26002L16.417 5.52002L16.425 5.62402C16.49 6.53802 16.498 7.39402 16.499 7.58102V7.65602C16.498 7.85002 16.489 8.76402 16.417 9.71602L16.409 9.82102L16.4 9.92502C16.35 10.497 16.276 11.065 16.165 11.483C16.0743 11.823 15.8958 12.1331 15.6475 12.3823C15.3991 12.6316 15.0896 12.8111 14.75 12.903C13.59 13.215 9.181 13.237 8.57 13.238H8.428C8.119 13.238 6.841 13.232 5.501 13.186L5.331 13.18L5.244 13.176L5.073 13.169L4.902 13.162C3.792 13.113 2.735 13.034 2.248 12.902C1.90849 12.8102 1.59907 12.6308 1.35072 12.3818C1.10238 12.1327 0.923847 11.8228 0.833 11.483C0.722 11.066 0.648 10.497 0.598 9.92502L0.59 9.82002L0.582 9.71602C0.532648 9.03842 0.5053 8.3594 0.5 7.68002L0.5 7.55702C0.502 7.34202 0.51 6.59902 0.564 5.77902L0.571 5.67602L0.574 5.62402L0.582 5.52002L0.604 5.26002L0.614 5.15602C0.662 4.63702 0.733 4.13302 0.834 3.75402C0.924694 3.41407 1.10316 3.10393 1.35151 2.85471C1.59986 2.60548 1.90937 2.42592 2.249 2.33402C2.736 2.20402 3.793 2.12402 4.903 2.07402L5.073 2.06702L5.245 2.06102L5.331 2.05802L5.502 2.05102C6.45371 2.0204 7.40581 2.0034 8.358 2.00002H8.551V1.99902ZM6.9 5.20902V10.027L11.057 7.61902L6.9 5.20902Z" fill="white"/>
</g>
<defs>
<clipPath id="clip0_3504_60">
<rect width="16" height="16" fill="white"/>
</clipPath>
</defs>
</svg>
