<svg width="23" height="23" viewBox="0 0 23 23" fill="none" xmlns="http://www.w3.org/2000/svg">
<path d="M6.03178 13.1374L4.6651 19.0554C4.62278 19.2346 4.63549 19.4224 4.70156 19.5943C4.76763 19.7662 4.88399 19.9141 5.03545 20.0188C5.18691 20.1235 5.36643 20.1801 5.55056 20.1812C5.73468 20.1823 5.91486 20.1278 6.06755 20.0249L11.0619 16.6954L16.0562 20.0249C16.2125 20.1287 16.3967 20.1821 16.5842 20.178C16.7717 20.1739 16.9535 20.1124 17.105 20.0019C17.2565 19.8915 17.3706 19.7372 17.4319 19.56C17.4931 19.3827 17.4986 19.191 17.4477 19.0105L15.7701 13.1402L19.9306 9.39603C20.0639 9.27605 20.159 9.11963 20.2043 8.94614C20.2497 8.77264 20.2431 8.58967 20.1855 8.41986C20.1279 8.25004 20.0219 8.10083 19.8804 7.99067C19.7389 7.88051 19.5682 7.81423 19.3895 7.80004L14.1603 7.38362L11.8975 2.3746C11.8253 2.21331 11.708 2.07635 11.5598 1.98025C11.4115 1.88415 11.2386 1.83301 11.0619 1.83301C10.8852 1.83301 10.7123 1.88415 10.564 1.98025C10.4157 2.07635 10.2984 2.21331 10.2263 2.3746L7.96347 7.38362L2.73432 7.79913C2.55863 7.81305 2.39067 7.87729 2.25053 7.98416C2.11039 8.09104 2.00401 8.23602 1.94412 8.40178C1.88422 8.56753 1.87335 8.74703 1.9128 8.9188C1.95225 9.09057 2.04034 9.24734 2.16656 9.37035L6.03178 13.1374ZM8.64865 9.16947C8.81237 9.15658 8.96961 9.09987 9.10387 9.0053C9.23814 8.91073 9.3445 8.78179 9.41179 8.63198L11.0619 4.98047L12.712 8.63198C12.7793 8.78179 12.8856 8.91073 13.0199 9.0053C13.1542 9.09987 13.3114 9.15658 13.4751 9.16947L17.1184 9.4584L14.1181 12.1587C13.8576 12.3936 13.754 12.7549 13.8494 13.0925L14.9987 17.1146L11.5719 14.8297C11.4215 14.7288 11.2444 14.6749 11.0633 14.6749C10.8821 14.6749 10.7051 14.7288 10.5547 14.8297L6.97378 17.2173L7.93688 13.0475C7.97219 12.8942 7.96745 12.7343 7.92311 12.5833C7.87878 12.4323 7.79634 12.2953 7.68372 12.1853L4.89716 9.46849L8.64865 9.16947Z" fill="#23856D"/>
</svg>
