<svg width="23" height="23" viewBox="0 0 23 23" fill="none" xmlns="http://www.w3.org/2000/svg">
<path d="M20.1567 8.41915C20.099 8.24934 19.9929 8.10013 19.8514 7.98994C19.7099 7.87975 19.5393 7.81341 19.3605 7.7991L14.1314 7.38359L11.8686 2.37458C11.7965 2.21324 11.6793 2.07622 11.5311 1.98003C11.3828 1.88385 11.21 1.83262 11.0333 1.83252C10.8566 1.83242 10.6836 1.88347 10.5353 1.97949C10.387 2.07551 10.2696 2.21241 10.1974 2.37366L7.93454 7.38359L2.70539 7.7991C2.5297 7.81302 2.36174 7.87726 2.2216 7.98413C2.08146 8.09101 1.97508 8.236 1.91519 8.40175C1.85529 8.5675 1.84442 8.747 1.88387 8.91877C1.92331 9.09054 2.01141 9.24731 2.13762 9.37032L6.00193 13.1374L4.63525 19.0554C4.59376 19.2345 4.60706 19.422 4.67343 19.5935C4.7398 19.765 4.85618 19.9125 5.00747 20.0171C5.15876 20.1216 5.33796 20.1782 5.52184 20.1796C5.70571 20.181 5.88576 20.1271 6.03862 20.0249L11.033 16.6954L16.0273 20.0249C16.1835 20.1286 16.3678 20.182 16.5553 20.1779C16.7428 20.1738 16.9245 20.1124 17.0761 20.0019C17.2276 19.8914 17.3417 19.7372 17.4029 19.5599C17.4642 19.3827 17.4697 19.1909 17.4187 19.0105L15.7411 13.1402L19.9017 9.396C20.1741 9.15018 20.2741 8.76678 20.1567 8.41915Z" fill="#23856D"/>
</svg>
