<svg width="17" height="16" viewBox="0 0 17 16" fill="none" xmlns="http://www.w3.org/2000/svg">
<g clip-path="url(#clip0_3504_57)">
<path d="M8.5 0C6.329 0 6.056 0.01 5.203 0.048C4.35 0.088 3.769 0.222 3.26 0.42C2.72609 0.620819 2.24249 0.935826 1.843 1.343C1.43608 1.7427 1.12111 2.22624 0.92 2.76C0.722 3.268 0.587 3.85 0.548 4.7C0.51 5.555 0.5 5.827 0.5 8.001C0.5 10.173 0.51 10.445 0.548 11.298C0.588 12.15 0.722 12.731 0.92 13.24C1.125 13.766 1.398 14.212 1.843 14.657C2.287 15.102 2.733 15.376 3.259 15.58C3.769 15.778 4.349 15.913 5.201 15.952C6.055 15.99 6.327 16 8.5 16C10.673 16 10.944 15.99 11.798 15.952C12.649 15.912 13.232 15.778 13.741 15.58C14.2746 15.3791 14.7578 15.0641 15.157 14.657C15.602 14.212 15.875 13.766 16.08 13.24C16.277 12.731 16.412 12.15 16.452 11.298C16.49 10.445 16.5 10.173 16.5 8C16.5 5.827 16.49 5.555 16.452 4.701C16.412 3.85 16.277 3.268 16.08 2.76C15.8789 2.22623 15.5639 1.74268 15.157 1.343C14.7576 0.935676 14.274 0.620645 13.74 0.42C13.23 0.222 12.648 0.087 11.797 0.048C10.943 0.01 10.672 0 8.498 0H8.501H8.5ZM7.783 1.442H8.501C10.637 1.442 10.89 1.449 11.733 1.488C12.513 1.523 12.937 1.654 13.219 1.763C13.592 1.908 13.859 2.082 14.139 2.362C14.419 2.642 14.592 2.908 14.737 3.282C14.847 3.563 14.977 3.987 15.012 4.767C15.051 5.61 15.059 5.863 15.059 7.998C15.059 10.133 15.051 10.387 15.012 11.23C14.977 12.01 14.846 12.433 14.737 12.715C14.6087 13.0624 14.404 13.3764 14.138 13.634C13.858 13.914 13.592 14.087 13.218 14.232C12.938 14.342 12.514 14.472 11.733 14.508C10.89 14.546 10.637 14.555 8.501 14.555C6.365 14.555 6.111 14.546 5.268 14.508C4.488 14.472 4.065 14.342 3.783 14.232C3.4355 14.1039 3.12113 13.8996 2.863 13.634C2.59675 13.376 2.39172 13.0617 2.263 12.714C2.154 12.433 2.023 12.009 1.988 11.229C1.95 10.386 1.942 10.133 1.942 7.996C1.942 5.86 1.95 5.608 1.988 4.765C2.024 3.985 2.154 3.561 2.264 3.279C2.409 2.906 2.583 2.639 2.863 2.359C3.143 2.079 3.409 1.906 3.783 1.761C4.065 1.651 4.488 1.521 5.268 1.485C6.006 1.451 6.292 1.441 7.783 1.44V1.442ZM12.771 2.77C12.6449 2.77 12.5201 2.79483 12.4036 2.84308C12.2872 2.89132 12.1813 2.96203 12.0922 3.05118C12.003 3.14032 11.9323 3.24615 11.8841 3.36262C11.8358 3.4791 11.811 3.60393 11.811 3.73C11.811 3.85607 11.8358 3.9809 11.8841 4.09738C11.9323 4.21385 12.003 4.31968 12.0922 4.40882C12.1813 4.49797 12.2872 4.56868 12.4036 4.61692C12.5201 4.66517 12.6449 4.69 12.771 4.69C13.0256 4.69 13.2698 4.58886 13.4498 4.40882C13.6299 4.22879 13.731 3.98461 13.731 3.73C13.731 3.47539 13.6299 3.23121 13.4498 3.05118C13.2698 2.87114 13.0256 2.77 12.771 2.77ZM8.501 3.892C7.95607 3.8835 7.41489 3.98349 6.90898 4.18614C6.40306 4.3888 5.94251 4.69007 5.55415 5.07242C5.16579 5.45478 4.85736 5.91057 4.64684 6.41326C4.43632 6.91595 4.3279 7.4555 4.3279 8.0005C4.3279 8.5455 4.43632 9.08505 4.64684 9.58774C4.85736 10.0904 5.16579 10.5462 5.55415 10.9286C5.94251 11.3109 6.40306 11.6122 6.90898 11.8149C7.41489 12.0175 7.95607 12.1175 8.501 12.109C9.57954 12.0922 10.6082 11.6519 11.365 10.8833C12.1217 10.1146 12.5459 9.07917 12.5459 8.0005C12.5459 6.92183 12.1217 5.88641 11.365 5.11775C10.6082 4.34909 9.57954 3.90883 8.501 3.892ZM8.501 5.333C9.20833 5.333 9.88669 5.61399 10.3869 6.11415C10.887 6.61431 11.168 7.29267 11.168 8C11.168 8.70733 10.887 9.38569 10.3869 9.88585C9.88669 10.386 9.20833 10.667 8.501 10.667C7.79367 10.667 7.11531 10.386 6.61515 9.88585C6.11499 9.38569 5.834 8.70733 5.834 8C5.834 7.29267 6.11499 6.61431 6.61515 6.11415C7.11531 5.61399 7.79367 5.333 8.501 5.333Z" fill="white"/>
</g>
<defs>
<clipPath id="clip0_3504_57">
<rect width="16.0006" height="16.0003" fill="white" transform="translate(0.5)"/>
</clipPath>
</defs>
</svg>
