<svg width="30" height="30" viewBox="0 0 30 30" fill="none" xmlns="http://www.w3.org/2000/svg">
<g clip-path="url(#clip0_3536_1627)">
<path d="M25.5784 25.4624H21.1507V18.5282C21.1507 16.8747 21.1212 14.7461 18.8478 14.7461C16.5417 14.7461 16.1888 16.5477 16.1888 18.4078V25.4619H11.7612V11.2024H16.0117V13.1512H16.0712C16.4966 12.4238 17.1113 11.8254 17.8499 11.4198C18.5884 11.0142 19.4232 10.8165 20.2652 10.8477C24.7529 10.8477 25.5803 13.7996 25.5803 17.6398L25.5784 25.4624V25.4624ZM6.76506 9.25337C5.34596 9.25361 4.19533 8.10334 4.1951 6.68423C4.19487 5.26513 5.34502 4.11451 6.76413 4.11427C8.18323 4.11392 9.33385 5.26419 9.33409 6.6833C9.33421 7.36478 9.06362 8.0184 8.58184 8.50038C8.10006 8.98236 7.44654 9.25322 6.76506 9.25337V9.25337ZM8.97899 25.4625H4.54658V11.2024H8.97887V25.4624L8.97899 25.4625ZM27.7858 0.00217493H2.32168C1.11817 -0.0113659 0.131209 0.952719 0.116501 2.15622V27.7266C0.130742 28.9307 1.11759 29.8957 2.32156 29.8831H27.7858C28.9924 29.898 29.9831 28.933 29.9998 27.7266V2.15424C29.9826 0.9484 28.9918 -0.0155683 27.7858 0.000190493" fill="#3C403D"/>
</g>
<defs>
<clipPath id="clip0_3536_1627">
<rect width="30" height="29.8833" fill="white"/>
</clipPath>
</defs>
</svg>
