<svg width="30" height="31" viewBox="0 0 30 31" fill="none" xmlns="http://www.w3.org/2000/svg">
<path d="M8.98446 3.48645C8.71958 3.49059 8.46717 3.59965 8.28262 3.78969C8.09807 3.97974 7.99645 4.23524 8.00008 4.50012V8.50012H4.00008C3.86757 8.49825 3.73601 8.52273 3.61304 8.57214C3.49007 8.62156 3.37815 8.69492 3.28378 8.78796C3.18941 8.88101 3.11447 8.99188 3.06333 9.11414C3.01218 9.23639 2.98584 9.3676 2.98584 9.50012C2.98584 9.63265 3.01218 9.76385 3.06333 9.88611C3.11447 10.0084 3.18941 10.1192 3.28378 10.2123C3.37815 10.3053 3.49007 10.3787 3.61304 10.4281C3.73601 10.4775 3.86757 10.502 4.00008 10.5001H6.62899C6.51507 10.6913 6.46816 10.915 6.49568 11.1358C6.5232 11.3566 6.62358 11.5619 6.78092 11.7193C6.93827 11.8766 7.14361 11.977 7.36442 12.0045C7.58524 12.032 7.80893 11.9851 8.00008 11.8712V20.5001H4.00008C3.86757 20.4982 3.73601 20.5227 3.61304 20.5721C3.49007 20.6216 3.37815 20.6949 3.28378 20.788C3.18941 20.881 3.11447 20.9919 3.06333 21.1141C3.01218 21.2364 2.98584 21.3676 2.98584 21.5001C2.98584 21.6326 3.01218 21.7639 3.06333 21.8861C3.11447 22.0084 3.18941 22.1192 3.28378 22.2123C3.37815 22.3053 3.49007 22.3787 3.61304 22.4281C3.73601 22.4775 3.86757 22.502 4.00008 22.5001H6.62899C6.51507 22.6913 6.46816 22.915 6.49568 23.1358C6.5232 23.3566 6.62358 23.5619 6.78092 23.7193C6.93827 23.8766 7.14361 23.977 7.36442 24.0045C7.58524 24.032 7.80893 23.9851 8.00008 23.8712V26.5001C7.99821 26.6326 8.02269 26.7642 8.0721 26.8872C8.12152 27.0101 8.19488 27.1221 8.28792 27.2164C8.38097 27.3108 8.49184 27.3857 8.6141 27.4369C8.73635 27.488 8.86756 27.5144 9.00008 27.5144C9.13261 27.5144 9.26381 27.488 9.38607 27.4369C9.50833 27.3857 9.6192 27.3108 9.71224 27.2164C9.80529 27.1221 9.87865 27.0101 9.92806 26.8872C9.97748 26.7642 10.002 26.6326 10.0001 26.5001V22.5001H18.629C18.5151 22.6913 18.4682 22.915 18.4957 23.1358C18.5232 23.3566 18.6236 23.5619 18.7809 23.7193C18.9383 23.8766 19.1436 23.977 19.3644 24.0045C19.5852 24.032 19.8089 23.9851 20.0001 23.8712V26.5001C19.9982 26.6326 20.0227 26.7642 20.0721 26.8872C20.1215 27.0101 20.1949 27.1221 20.2879 27.2164C20.381 27.3108 20.4918 27.3857 20.6141 27.4369C20.7364 27.488 20.8676 27.5144 21.0001 27.5144C21.1326 27.5144 21.2638 27.488 21.3861 27.4369C21.5083 27.3857 21.6192 27.3108 21.7122 27.2164C21.8053 27.1221 21.8786 27.0101 21.9281 26.8872C21.9775 26.7642 22.002 26.6326 22.0001 26.5001V22.5001H26.0001C26.1326 22.502 26.2642 22.4775 26.3871 22.4281C26.5101 22.3787 26.622 22.3053 26.7164 22.2123C26.8108 22.1192 26.8857 22.0084 26.9368 21.8861C26.988 21.7639 27.0143 21.6326 27.0143 21.5001C27.0143 21.3676 26.988 21.2364 26.9368 21.1141C26.8857 20.9919 26.8108 20.881 26.7164 20.788C26.622 20.6949 26.5101 20.6216 26.3871 20.5721C26.2642 20.5227 26.1326 20.4982 26.0001 20.5001H23.3692C23.4605 20.3462 23.5088 20.1706 23.5091 19.9917C23.5094 19.8127 23.4616 19.637 23.3709 19.4827C23.2801 19.3285 23.1496 19.2015 22.993 19.1149C22.8364 19.0283 22.6594 18.9853 22.4806 18.9904C22.3112 18.9951 22.1459 19.0429 22.0001 19.129V10.5001H26.0001C26.1326 10.502 26.2642 10.4775 26.3871 10.4281C26.5101 10.3787 26.622 10.3053 26.7164 10.2123C26.8108 10.1192 26.8857 10.0084 26.9368 9.88611C26.988 9.76385 27.0143 9.63265 27.0143 9.50012C27.0143 9.3676 26.988 9.23639 26.9368 9.11414C26.8857 8.99188 26.8108 8.88101 26.7164 8.78796C26.622 8.69492 26.5101 8.62156 26.3871 8.57214C26.2642 8.52273 26.1326 8.49825 26.0001 8.50012H23.3692C23.4605 8.3462 23.5088 8.1706 23.5091 7.99165C23.5094 7.8127 23.4616 7.63695 23.3709 7.48274C23.2801 7.32852 23.1496 7.20148 22.993 7.11488C22.8364 7.02827 22.6594 6.98527 22.4806 6.99036C22.3112 6.99515 22.1459 7.04286 22.0001 7.12903V4.50012C22.0019 4.36633 21.9769 4.23354 21.9265 4.1096C21.8761 3.98566 21.8013 3.87309 21.7066 3.77857C21.6119 3.68405 21.4992 3.60949 21.3751 3.55932C21.2511 3.50914 21.1182 3.48436 20.9845 3.48645C20.7196 3.49059 20.4672 3.59965 20.2826 3.78969C20.0981 3.97974 19.9965 4.23524 20.0001 4.50012V8.50012H11.3692C11.4605 8.3462 11.5088 8.1706 11.5091 7.99165C11.5094 7.8127 11.4616 7.63695 11.3709 7.48274C11.2801 7.32852 11.1496 7.20148 10.993 7.11488C10.8364 7.02827 10.6594 6.98527 10.4806 6.99036C10.3112 6.99515 10.1459 7.04286 10.0001 7.12903V4.50012C10.0019 4.36633 9.97688 4.23354 9.92647 4.1096C9.87605 3.98566 9.80128 3.87309 9.70657 3.77857C9.61187 3.68405 9.49916 3.60949 9.37512 3.55932C9.25109 3.50914 9.11824 3.48436 8.98446 3.48645ZM10.0001 10.5001H18.6309C18.5177 10.6911 18.4712 10.9143 18.4988 11.1347C18.5264 11.355 18.6265 11.5599 18.7834 11.717C18.9403 11.8741 19.1451 11.9745 19.3653 12.0025C19.5856 12.0304 19.8089 11.9842 20.0001 11.8712V20.5001H11.3692C11.4605 20.3462 11.5088 20.1706 11.5091 19.9917C11.5094 19.8127 11.4616 19.637 11.3709 19.4827C11.2801 19.3285 11.1496 19.2015 10.993 19.1149C10.8364 19.0283 10.6594 18.9853 10.4806 18.9904C10.3112 18.9951 10.1459 19.0429 10.0001 19.129V10.5001Z" fill="white"/>
</svg>
