<svg width="17" height="17" viewBox="0 0 17 17" fill="none" xmlns="http://www.w3.org/2000/svg">
<path d="M5.31944 2.06159C5.17483 2.06385 5.03703 2.12339 4.93627 2.22714C4.83552 2.3309 4.78005 2.47038 4.78203 2.61499V4.79875H2.59827C2.52593 4.79773 2.4541 4.81109 2.38697 4.83807C2.31984 4.86505 2.25873 4.9051 2.20721 4.95589C2.15569 5.00669 2.11478 5.06722 2.08686 5.13396C2.05894 5.20071 2.04456 5.27234 2.04456 5.34469C2.04456 5.41704 2.05894 5.48867 2.08686 5.55541C2.11478 5.62216 2.15569 5.68269 2.20721 5.73349C2.25873 5.78428 2.31984 5.82433 2.38697 5.85131C2.4541 5.87829 2.52593 5.89165 2.59827 5.89063H4.03349C3.9713 5.99499 3.94569 6.11711 3.96071 6.23766C3.97574 6.35821 4.03054 6.47031 4.11644 6.55621C4.20234 6.64212 4.31444 6.69692 4.435 6.71194C4.55555 6.72696 4.67767 6.70135 4.78203 6.63916V11.35H2.59827C2.52593 11.349 2.4541 11.3624 2.38697 11.3893C2.31984 11.4163 2.25873 11.4564 2.20721 11.5072C2.15569 11.558 2.11478 11.6185 2.08686 11.6852C2.05894 11.752 2.04456 11.8236 2.04456 11.896C2.04456 11.9683 2.05894 12.0399 2.08686 12.1067C2.11478 12.1734 2.15569 12.234 2.20721 12.2848C2.25873 12.3356 2.31984 12.3756 2.38697 12.4026C2.4541 12.4296 2.52593 12.4429 2.59827 12.4419H4.03349C3.9713 12.5463 3.94569 12.6684 3.96071 12.7889C3.97574 12.9095 4.03054 13.0216 4.11644 13.1075C4.20234 13.1934 4.31444 13.2482 4.435 13.2632C4.55555 13.2782 4.67767 13.2526 4.78203 13.1904V14.6257C4.781 14.698 4.79437 14.7698 4.82135 14.837C4.84832 14.9041 4.88837 14.9652 4.93917 15.0167C4.98997 15.0682 5.0505 15.1091 5.11724 15.1371C5.18399 15.165 5.25562 15.1794 5.32797 15.1794C5.40032 15.1794 5.47195 15.165 5.53869 15.1371C5.60544 15.1091 5.66597 15.0682 5.71676 15.0167C5.76756 14.9652 5.80761 14.9041 5.83459 14.837C5.86156 14.7698 5.87493 14.698 5.87391 14.6257V12.4419H10.5848C10.5226 12.5463 10.497 12.6684 10.512 12.7889C10.527 12.9095 10.5818 13.0216 10.6677 13.1075C10.7536 13.1934 10.8657 13.2482 10.9863 13.2632C11.1068 13.2782 11.2289 13.2526 11.3333 13.1904V14.6257C11.3323 14.698 11.3456 14.7698 11.3726 14.837C11.3996 14.9041 11.4396 14.9652 11.4904 15.0167C11.5412 15.0682 11.6018 15.1091 11.6685 15.1371C11.7353 15.165 11.8069 15.1794 11.8792 15.1794C11.9516 15.1794 12.0232 15.165 12.09 15.1371C12.1567 15.1091 12.2172 15.0682 12.268 15.0167C12.3188 14.9652 12.3589 14.9041 12.3859 14.837C12.4128 14.7698 12.4262 14.698 12.4252 14.6257V12.4419H14.6089C14.6813 12.4429 14.7531 12.4296 14.8202 12.4026C14.8874 12.3756 14.9485 12.3356 15 12.2848C15.0515 12.234 15.0924 12.1734 15.1203 12.1067C15.1483 12.0399 15.1626 11.9683 15.1626 11.896C15.1626 11.8236 15.1483 11.752 15.1203 11.6852C15.0924 11.6185 15.0515 11.558 15 11.5072C14.9485 11.4564 14.8874 11.4163 14.8202 11.3893C14.7531 11.3624 14.6813 11.349 14.6089 11.35H13.1726C13.2225 11.266 13.2488 11.1701 13.249 11.0724C13.2491 10.9747 13.2231 10.8788 13.1735 10.7946C13.124 10.7104 13.0527 10.641 12.9672 10.5938C12.8818 10.5465 12.7851 10.523 12.6875 10.5258C12.595 10.5284 12.5048 10.5544 12.4252 10.6015V5.89063H14.6089C14.6813 5.89165 14.7531 5.87829 14.8202 5.85131C14.8874 5.82433 14.9485 5.78428 15 5.73349C15.0515 5.68269 15.0924 5.62216 15.1203 5.55541C15.1483 5.48867 15.1626 5.41704 15.1626 5.34469C15.1626 5.27234 15.1483 5.20071 15.1203 5.13396C15.0924 5.06722 15.0515 5.00669 15 4.95589C14.9485 4.9051 14.8874 4.86505 14.8202 4.83807C14.7531 4.81109 14.6813 4.79773 14.6089 4.79875H13.1726C13.2225 4.71472 13.2488 4.61885 13.249 4.52116C13.2491 4.42346 13.2231 4.32751 13.1735 4.24332C13.124 4.15913 13.0527 4.08977 12.9672 4.04249C12.8818 3.99521 12.7851 3.97173 12.6875 3.97451C12.595 3.97713 12.5048 4.00318 12.4252 4.05022V2.61499C12.4262 2.54195 12.4125 2.46945 12.385 2.40179C12.3575 2.33413 12.3166 2.27267 12.2649 2.22107C12.2132 2.16947 12.1517 2.12876 12.084 2.10137C12.0163 2.07398 11.9437 2.06045 11.8707 2.06159C11.7261 2.06385 11.5883 2.12339 11.4875 2.22714C11.3868 2.3309 11.3313 2.47038 11.3333 2.61499V4.79875H6.62137C6.6712 4.71472 6.69757 4.61885 6.69772 4.52116C6.69788 4.42346 6.67182 4.32751 6.62226 4.24332C6.5727 4.15913 6.50146 4.08977 6.41597 4.04249C6.33048 3.99521 6.23387 3.97173 6.13621 3.97451C6.04378 3.97713 5.95352 4.00318 5.87391 4.05022V2.61499C5.87491 2.54195 5.86124 2.46945 5.83371 2.40179C5.80619 2.33413 5.76537 2.27267 5.71367 2.22107C5.66196 2.16947 5.60043 2.12876 5.53272 2.10137C5.465 2.07398 5.39247 2.06045 5.31944 2.06159V2.06159ZM5.87391 5.89063H10.5858C10.524 5.99489 10.4986 6.11677 10.5137 6.23705C10.5288 6.35734 10.5834 6.46918 10.6691 6.55496C10.7547 6.64074 10.8665 6.69557 10.9868 6.71082C11.107 6.72606 11.2289 6.70085 11.3333 6.63916V11.35H6.62137C6.6712 11.266 6.69757 11.1701 6.69772 11.0724C6.69788 10.9747 6.67182 10.8788 6.62226 10.7946C6.5727 10.7104 6.50146 10.641 6.41597 10.5938C6.33048 10.5465 6.23387 10.523 6.13621 10.5258C6.04378 10.5284 5.95352 10.5544 5.87391 10.6015V5.89063Z" fill="white"/>
</svg>
