<svg width="17" height="17" viewBox="0 0 17 17" fill="none" xmlns="http://www.w3.org/2000/svg">
<path d="M8.28025 2.06987C8.11803 2.0716 7.95998 2.12148 7.82615 2.21317C7.69231 2.30486 7.58872 2.43424 7.52852 2.58488L4.25288 10.774C4.24877 10.7842 4.24486 10.7945 4.24115 10.8049H3.92127C3.84893 10.8039 3.7771 10.8172 3.70997 10.8442C3.64283 10.8712 3.58173 10.9112 3.53021 10.962C3.47869 11.0128 3.43778 11.0734 3.40986 11.1401C3.38193 11.2069 3.36755 11.2785 3.36755 11.3508C3.36755 11.4232 3.38193 11.4948 3.40986 11.5616C3.43778 11.6283 3.47869 11.6888 3.53021 11.7396C3.58173 11.7904 3.64283 11.8305 3.70997 11.8575C3.7771 11.8844 3.84893 11.8978 3.92127 11.8968H4.83614C4.94793 11.9204 5.06343 11.9204 5.17522 11.8968H6.10503C6.17737 11.8978 6.24919 11.8844 6.31633 11.8575C6.38346 11.8305 6.44456 11.7904 6.49608 11.7396C6.5476 11.6888 6.58851 11.6283 6.61644 11.5616C6.64436 11.4948 6.65874 11.4232 6.65874 11.3508C6.65874 11.2785 6.64436 11.2069 6.61644 11.1401C6.58851 11.0734 6.5476 11.0128 6.49608 10.962C6.44456 10.9112 6.38346 10.8712 6.31633 10.8442C6.24919 10.8172 6.17737 10.8039 6.10503 10.8049H6.00373L6.65949 9.16708H9.91807L10.5738 10.8049H10.4725C10.4002 10.8039 10.3284 10.8172 10.2612 10.8442C10.1941 10.8712 10.133 10.9112 10.0815 10.962C10.03 11.0128 9.98905 11.0734 9.96113 11.1401C9.9332 11.2069 9.91882 11.2785 9.91882 11.3508C9.91882 11.4232 9.9332 11.4948 9.96113 11.5616C9.98905 11.6283 10.03 11.6888 10.0815 11.7396C10.133 11.7904 10.1941 11.8305 10.2612 11.8575C10.3284 11.8844 10.4002 11.8978 10.4725 11.8968H11.397C11.5102 11.921 11.6272 11.921 11.7404 11.8968H12.6563C12.7286 11.8978 12.8005 11.8844 12.8676 11.8575C12.9347 11.8305 12.9958 11.7904 13.0474 11.7396C13.0989 11.6888 13.1398 11.6283 13.1677 11.5616C13.1956 11.4948 13.21 11.4232 13.21 11.3508C13.21 11.2785 13.1956 11.2069 13.1677 11.1401C13.1398 11.0734 13.0989 11.0128 13.0474 10.962C12.9958 10.9112 12.9347 10.8712 12.8676 10.8442C12.8005 10.8172 12.7286 10.8039 12.6563 10.8049H12.3364C12.3327 10.7945 12.3288 10.7842 12.3247 10.774L9.04904 2.58488C8.98776 2.43154 8.88155 2.3003 8.74436 2.20839C8.60716 2.11648 8.44538 2.0682 8.28025 2.06987V2.06987ZM8.28878 5.09386L9.48089 8.0752H7.09667L8.28878 5.09386ZM3.37533 13.5346V15.1724H13.2022V13.5346H3.37533Z" fill="white"/>
</svg>
