<svg width="30" height="31" viewBox="0 0 30 31" fill="none" xmlns="http://www.w3.org/2000/svg">
<path d="M14.9845 3.50008C14.6873 3.50326 14.3978 3.59462 14.1527 3.76257C13.9075 3.93052 13.7178 4.1675 13.6075 4.44344L7.6075 19.4434C7.59996 19.4622 7.5928 19.4811 7.58602 19.5001H7.00008C6.86757 19.4982 6.73601 19.5227 6.61304 19.5721C6.49007 19.6215 6.37815 19.6949 6.28378 19.7879C6.18941 19.881 6.11447 19.9918 6.06333 20.1141C6.01218 20.2363 5.98584 20.3676 5.98584 20.5001C5.98584 20.6326 6.01218 20.7638 6.06333 20.8861C6.11447 21.0083 6.18941 21.1192 6.28378 21.2122C6.37815 21.3053 6.49007 21.3786 6.61304 21.4281C6.73601 21.4775 6.86757 21.502 7.00008 21.5001H8.67586C8.88063 21.5434 9.09219 21.5434 9.29696 21.5001H11.0001C11.1326 21.502 11.2642 21.4775 11.3871 21.4281C11.5101 21.3786 11.622 21.3053 11.7164 21.2122C11.8108 21.1192 11.8857 21.0083 11.9368 20.8861C11.988 20.7638 12.0143 20.6326 12.0143 20.5001C12.0143 20.3676 11.988 20.2363 11.9368 20.1141C11.8857 19.9918 11.8108 19.881 11.7164 19.7879C11.622 19.6949 11.5101 19.6215 11.3871 19.5721C11.2642 19.5227 11.1326 19.4982 11.0001 19.5001H10.8145L12.0157 16.5001H17.9845L19.1856 19.5001H19.0001C18.8676 19.4982 18.736 19.5227 18.613 19.5721C18.4901 19.6215 18.3781 19.6949 18.2838 19.7879C18.1894 19.881 18.1145 19.9918 18.0633 20.1141C18.0122 20.2363 17.9858 20.3676 17.9858 20.5001C17.9858 20.6326 18.0122 20.7638 18.0633 20.8861C18.1145 21.0083 18.1894 21.1192 18.2838 21.2122C18.3781 21.3053 18.4901 21.3786 18.613 21.4281C18.736 21.4775 18.8676 21.502 19.0001 21.5001H20.6934C20.9007 21.5445 21.1151 21.5445 21.3223 21.5001H23.0001C23.1326 21.502 23.2642 21.4775 23.3871 21.4281C23.5101 21.3786 23.622 21.3053 23.7164 21.2122C23.8108 21.1192 23.8857 21.0083 23.9368 20.8861C23.988 20.7638 24.0143 20.6326 24.0143 20.5001C24.0143 20.3676 23.988 20.2363 23.9368 20.1141C23.8857 19.9918 23.8108 19.881 23.7164 19.7879C23.622 19.6949 23.5101 19.6215 23.3871 19.5721C23.2642 19.5227 23.1326 19.4982 23.0001 19.5001H22.4141C22.4074 19.4811 22.4002 19.4622 22.3927 19.4434L16.3927 4.44344C16.2804 4.16255 16.0859 3.92216 15.8346 3.75381C15.5833 3.58546 15.2869 3.49702 14.9845 3.50008ZM15.0001 9.03914L17.1837 14.5001H12.8165L15.0001 9.03914ZM6.00008 24.5001V27.5001H24.0001V24.5001H6.00008Z" fill="white"/>
</svg>
